<svg width="92" height="89" viewBox="0 0 92 89" fill="none" xmlns="http://www.w3.org/2000/svg">
<g clip-path="url(#clip0_25_16)">
<path d="M78.5272 13.0338C69.8389 4.62887 58.2872 0 46.0001 0C33.7131 0 22.1617 4.62887 13.4735 13.0338C4.78521 21.4387 0.000488281 32.6136 0.000488281 44.5C0.000488281 56.3864 4.78521 67.5613 13.4735 75.9662C22.1617 84.3711 33.7133 89 46.0001 89C58.287 89 69.8387 84.3711 78.5272 75.9662C87.2154 67.5613 92.0001 56.3864 92.0001 44.5C92.0001 32.6136 87.2154 21.4387 78.5272 13.0338ZM46.0001 83.7852C23.6082 83.7852 5.39111 66.1619 5.39111 44.5C5.39111 22.8381 23.6082 5.21484 46.0001 5.21484C68.3923 5.21484 86.6095 22.8381 86.6095 44.5C86.6095 66.1619 68.3923 83.7852 46.0001 83.7852Z" fill="black"/>
<path d="M28.6781 25.1355C22.4163 25.1355 17.322 30.0639 17.322 36.1216C17.322 37.5616 18.5288 38.729 20.0173 38.729C21.5059 38.729 22.7126 37.5616 22.7126 36.1216C22.7126 32.9393 25.3887 30.3503 28.6781 30.3503C31.9675 30.3503 34.6435 32.9393 34.6435 36.1216C34.6435 37.5616 35.8503 38.729 37.3389 38.729C38.8274 38.729 40.0342 37.5616 40.0342 36.1216C40.0342 30.0639 34.9398 25.1355 28.6781 25.1355Z" fill="black"/>
<path d="M63.3216 25.1355C57.0599 25.1355 51.9656 30.0639 51.9656 36.1216C51.9656 37.5616 53.1724 38.729 54.6609 38.729C56.1494 38.729 57.3562 37.5616 57.3562 36.1216C57.3562 32.9393 60.0323 30.3503 63.3216 30.3503C66.611 30.3503 69.2871 32.9393 69.2871 36.1216C69.2871 37.5616 70.4939 38.729 71.9824 38.729C73.4709 38.729 74.6777 37.5616 74.6777 36.1216C74.6777 30.0639 69.5834 25.1355 63.3216 25.1355Z" fill="black"/>
<path d="M71.3999 50.4201C69.9968 49.9403 68.4567 50.6518 67.9605 52.0096C64.6784 60.9927 55.8532 67.0282 45.9998 67.0282C36.1465 67.0282 27.3212 60.9927 24.0392 52.0096C23.5432 50.6518 22.0029 49.9403 20.5998 50.4201C19.1962 50.8999 18.4606 52.3896 18.9567 53.7473C22.9986 64.8101 33.8665 72.243 45.9998 72.243C58.1332 72.243 69.0009 64.8101 73.043 53.7473C73.5391 52.3896 72.8037 50.8999 71.3999 50.4201Z" fill="black"/>
</g>
<defs>
<clipPath id="clip0_25_16">
<rect width="92" height="89" fill="white"/>
</clipPath>
</defs>
</svg>
