<svg width="93" height="90" viewBox="0 0 93 90" fill="none" xmlns="http://www.w3.org/2000/svg">
<path d="M85.2821 55.7227C86.579 54.3217 87.3691 52.4725 87.3691 50.4492C87.3691 46.0881 83.7018 42.5391 79.1953 42.5391H63.3308C64.902 37.9248 65.5723 31.8023 65.5723 29.1779V26.543C65.5723 20.7281 60.6825 15.9961 54.6738 15.9961H51.9492C50.6995 15.9961 49.6097 16.8188 49.3064 17.993L47.8223 23.7393C45.7426 31.7865 39.1399 40.6652 32.3066 42.2789C31.1096 39.3469 28.1543 37.2656 24.7031 37.2656H8.35547C6.85148 37.2656 5.63086 38.4469 5.63086 39.9023V87.3633C5.63086 88.8187 6.85148 90 8.35547 90H24.7031C27.9527 90 30.7645 88.1561 32.0814 85.4912L41.4431 88.5111C44.5038 89.499 47.6934 90 50.9211 90H73.7461C78.2526 90 81.9199 86.451 81.9199 82.0898C81.9199 81.0615 81.7165 80.0771 81.3459 79.1754C84.8116 78.2596 87.3691 75.1852 87.3691 71.543C87.3691 69.5197 86.579 67.6705 85.2821 66.2695C86.579 64.8686 87.3691 63.0193 87.3691 60.9961C87.3691 58.9729 86.579 57.1236 85.2821 55.7227ZM27.4277 82.0898C27.4277 83.5436 26.2053 84.7266 24.7031 84.7266H11.0801V42.5391H24.7031C26.2053 42.5391 27.4277 43.7221 27.4277 45.1758V82.0898ZM73.7461 58.3594H79.1953C80.6975 58.3594 81.9199 59.5424 81.9199 60.9961C81.9199 62.4498 80.6975 63.6328 79.1953 63.6328H73.7461C72.2421 63.6328 71.0215 64.8141 71.0215 66.2695C71.0215 67.725 72.2421 68.9062 73.7461 68.9062H79.1953C80.6975 68.9062 81.9199 70.0893 81.9199 71.543C81.9199 72.9967 80.6975 74.1797 79.1953 74.1797H73.7461C72.2421 74.1797 71.0215 75.3609 71.0215 76.8164C71.0215 78.2719 72.2421 79.4531 73.7461 79.4531C75.2483 79.4531 76.4707 80.6361 76.4707 82.0898C76.4707 83.5436 75.2483 84.7266 73.7461 84.7266H50.9211C48.2801 84.7266 45.6699 84.317 43.1651 83.5084L32.877 80.1897V47.5629C37.151 46.7771 41.3341 44.158 45.1105 39.8707C48.7978 35.6836 51.7876 30.1324 53.1081 25.0189L54.0762 21.2695H54.6738C57.6782 21.2695 60.123 23.6355 60.123 26.543V29.1779C60.123 32.7182 58.9787 39.5086 57.5147 42.5391H51.9492C50.4452 42.5391 49.2246 43.7203 49.2246 45.1758C49.2246 46.6313 50.4452 47.8125 51.9492 47.8125H79.1953C80.6975 47.8125 81.9199 48.9955 81.9199 50.4492C81.9199 51.9029 80.6975 53.0859 79.1953 53.0859H73.7461C72.2421 53.0859 71.0215 54.2672 71.0215 55.7227C71.0215 57.1781 72.2421 58.3594 73.7461 58.3594Z" fill="black"/>
<path d="M19.2539 79.4531C20.7587 79.4531 21.9785 78.2726 21.9785 76.8164C21.9785 75.3602 20.7587 74.1797 19.2539 74.1797C17.7491 74.1797 16.5293 75.3602 16.5293 76.8164C16.5293 78.2726 17.7491 79.4531 19.2539 79.4531Z" fill="black"/>
<path d="M57.3984 0C55.8937 0 54.6738 1.18055 54.6738 2.63672V8.08594C54.6738 9.54211 55.8937 10.7227 57.3984 10.7227C58.9031 10.7227 60.123 9.54211 60.123 8.08594V2.63672C60.123 1.18055 58.9031 0 57.3984 0Z" fill="black"/>
<path d="M45.8388 11.6276L41.9857 7.89876C40.9218 6.86903 39.1966 6.86903 38.1325 7.89876C37.0685 8.92849 37.0685 10.5979 38.1325 11.6276L41.9857 15.3565C43.0496 16.386 44.775 16.3862 45.8388 15.3565C46.9029 14.3267 46.9029 12.6573 45.8388 11.6276Z" fill="black"/>
<path d="M76.6644 7.89876C75.6005 6.86903 73.8753 6.86903 72.8112 7.89876L68.9581 11.6274C67.894 12.6572 67.894 14.3266 68.9581 15.3563C70.0219 16.386 71.7472 16.3862 72.8112 15.3565L76.6644 11.6276C77.7284 10.5979 77.7284 8.92849 76.6644 7.89876Z" fill="black"/>
</svg>
